# xmcd
#
# Track frame offsets:
#	150
#	23058
#	25695
#	54430
#	75661
#	91039
#	105764
#	125801
#	144216
#	164794
#
# Disc length: 2638 seconds
# Revision: 0
# Processed by: cddbd v1.5.2PL0 Copyright (c) Steve Scherf et al.
# Submitted via: dBpowerAMP V12.0
#
DISCID=6f0a4c0a
DTITLE=The Vince - 2 Vince
DYEAR=1900
DGENRE=
TTITLE0=Pop city #12
TTITLE1=Spoken word
TTITLE2=Today is the very first day of the rest of your life
TTITLE3=The Boogie up your nose
TTITLE4=Black lady with blue eyes
TTITLE5=Spare some change for a brother
TTITLE6=Yaponsa
TTITLE7=Noah
TTITLE8=The Hitcher
TTITLE9=Peace of shit
EXTD=
EXTT0=
EXTT1=
EXTT2=
EXTT3=
EXTT4=
EXTT5=
EXTT6=
EXTT7=
EXTT8=
EXTT9=
PLAYORDER=
